<svg width="18" height="18" viewBox="0 0 18 18" fill="none" xmlns="http://www.w3.org/2000/svg">
<rect x="0.5" y="0.5" width="16.2188" height="16.2188" fill="#F0EFE5" stroke="black"/>
<path d="M8.70994 13.1805C8.10994 13.1805 7.58994 13.0805 7.14994 12.8805C6.70994 12.6805 6.36994 12.3965 6.12994 12.0285C5.89794 11.6525 5.77794 11.2125 5.76994 10.7085H7.26994C7.26994 11.0685 7.39794 11.3525 7.65394 11.5605C7.91794 11.7605 8.27394 11.8605 8.72194 11.8605C9.15394 11.8605 9.48994 11.7605 9.72994 11.5605C9.97794 11.3605 10.1019 11.0845 10.1019 10.7325C10.1019 10.4365 10.0139 10.1805 9.83794 9.96455C9.66994 9.74055 9.42594 9.58855 9.10594 9.50855L8.09794 9.23255C7.40994 9.05655 6.87794 8.74055 6.50194 8.28455C6.13394 7.82855 5.94994 7.27655 5.94994 6.62855C5.94994 6.13255 6.06194 5.70055 6.28594 5.33255C6.50994 4.96455 6.82594 4.68055 7.23394 4.48055C7.64994 4.28055 8.13794 4.18055 8.69794 4.18055C9.54594 4.18055 10.2179 4.40055 10.7139 4.84055C11.2099 5.27255 11.4619 5.85655 11.4699 6.59255H9.96994C9.96994 6.24855 9.85794 5.98055 9.63394 5.78855C9.40994 5.58855 9.09394 5.48855 8.68594 5.48855C8.29394 5.48855 7.98994 5.58055 7.77394 5.76455C7.55794 5.94855 7.44994 6.20855 7.44994 6.54455C7.44994 6.84855 7.52994 7.10855 7.68994 7.32455C7.85794 7.53255 8.09794 7.68055 8.40994 7.76855L9.45394 8.05655C10.1499 8.23255 10.6819 8.54855 11.0499 9.00455C11.4179 9.45255 11.6019 10.0085 11.6019 10.6725C11.6019 11.1685 11.4819 11.6085 11.2419 11.9925C11.0019 12.3685 10.6659 12.6605 10.2339 12.8685C9.80194 13.0765 9.29394 13.1805 8.70994 13.1805Z" fill="black"/>
</svg>
